<svg xmlns="http://www.w3.org/2000/svg" width="1200" height="630" viewBox="0 0 1200 630" role="img" aria-labelledby="title desc">
  <title id="title">Ritesh Dev Portfolio Cover</title>
  <desc id="desc">Open Graph cover for Ritesh Dev portfolio website.</desc>
  <defs>
    <linearGradient id="bg" x1="0%" y1="0%" x2="100%" y2="100%">
      <stop offset="0%" stop-color="#041022"/>
      <stop offset="55%" stop-color="#071B3A"/>
      <stop offset="100%" stop-color="#007BFF"/>
    </linearGradient>
  </defs>
  <rect width="1200" height="630" fill="url(#bg)"/>
  <circle cx="960" cy="120" r="180" fill="rgba(255,255,255,0.08)"/>
  <circle cx="170" cy="520" r="220" fill="rgba(0,123,255,0.14)"/>
  <rect x="70" y="72" width="1060" height="486" rx="36" fill="rgba(255,255,255,0.08)" stroke="rgba(255,255,255,0.18)"/>
  <rect x="110" y="126" width="300" height="328" rx="28" fill="rgba(255,255,255,0.1)"/>
  <rect x="146" y="170" width="228" height="146" rx="24" fill="#007BFF"/>
  <rect x="146" y="338" width="196" height="18" rx="9" fill="rgba(255,255,255,0.22)"/>
  <rect x="146" y="372" width="172" height="18" rx="9" fill="rgba(255,255,255,0.18)"/>
  <rect x="146" y="406" width="138" height="18" rx="9" fill="rgba(255,255,255,0.14)"/>
  <rect x="468" y="128" width="280" height="212" rx="28" fill="rgba(255,255,255,0.9)"/>
  <rect x="508" y="182" width="38" height="92" rx="16" fill="#8CC2FF"/>
  <rect x="560" y="154" width="38" height="120" rx="16" fill="#4EA0FF"/>
  <rect x="612" y="196" width="38" height="78" rx="16" fill="#66ADFF"/>
  <rect x="664" y="138" width="38" height="136" rx="16" fill="#007BFF"/>
  <rect x="782" y="364" width="250" height="132" rx="24" fill="rgba(255,255,255,0.9)"/>
  <text x="140" y="112" fill="#EAF5FF" font-family="Arial, sans-serif" font-size="26" font-weight="700">Ritesh Dev</text>
  <text x="468" y="418" fill="#FFFFFF" font-family="Arial, sans-serif" font-size="62" font-weight="700">Mobile Apps, Websites</text>
  <text x="468" y="488" fill="#FFFFFF" font-family="Arial, sans-serif" font-size="62" font-weight="700">&amp; Admin Panels</text>
  <text x="470" y="538" fill="#D9E8FF" font-family="Arial, sans-serif" font-size="28">Full stack product development for startups and businesses.</text>
</svg>
